<svg width="631" height="518" viewBox="0 0 631 518" fill="none" xmlns="http://www.w3.org/2000/svg">
    <rect width="630.45" height="800" fill="white" />
    <path
        d="M291.725 22.2213C289.054 20.8466 286.073 19.9986 282.863 19.9986C278.402 19.9986 274.34 21.556 271.053 24.0786C235.952 17.8013 163.098 11.048 110.388 48.6159C84.668 66.9505 67.604 93.1212 59.44 126.614C46.6654 129.769 37.1801 141.272 37.1801 155.018C37.1801 159.866 38.3774 164.426 40.4601 168.452C26.0108 187.358 9.0975 217.339 10.0375 253.507C10.9655 289.346 28.8681 322.901 63.1867 353.448C62.6934 355.039 62.3507 356.698 62.3507 358.451C62.3507 367.83 69.9547 375.432 79.332 375.432C80.2253 375.432 81.0827 375.302 81.94 375.168C89.0573 385.73 100.268 399.69 115.875 411.808C115.423 413.534 115.103 415.311 115.103 417.179C115.103 424.686 119.029 431.243 124.915 435.008L118.756 450.726C111.288 469.8 117.863 490.021 135.112 501.04C142.053 505.477 149.896 507.82 157.788 507.82C169.001 507.82 179.63 503.172 187.72 494.729C192.752 489.479 196.909 484.901 200.09 481.123C236.254 438.091 284.129 425.971 326.374 415.275C357.49 407.396 387.278 399.791 408.989 381.242C413.078 383.191 417.634 384.312 422.466 384.312C437.147 384.312 449.443 374.224 452.887 360.614C481.728 358.211 520.392 352.082 551.409 336.681C601.12 311.997 628.099 256.886 618.544 199.544C610.715 152.562 573.868 97.9411 493.979 84.3531C485.814 73.9625 467.002 52.4906 439.324 35.3586C418.035 22.176 388.79 10.0014 353.477 10C334.541 9.9987 313.865 13.4986 291.725 22.2213ZM298.641 50.8732C300.957 47.6666 302.362 43.7559 302.362 39.4973C302.362 37.3533 301.931 35.3293 301.293 33.3973C357.401 13.0813 402.871 29.0653 432.043 47.1239C452.408 59.7332 467.603 74.8319 476.871 85.4199C445.315 90.1825 411.175 102.08 369.966 119.442C365.493 114.077 358.763 110.658 351.234 110.658C348.199 110.658 345.306 111.24 342.626 112.252C322.005 84.7758 307.386 63.8159 298.641 50.8732ZM171.473 37.6813C187.054 34.4079 202.76 33.2066 217.297 33.2066C235.393 33.2066 251.646 35.0319 263.625 36.9146C263.512 37.7679 263.365 38.6133 263.365 39.4973C263.365 40.7693 263.506 42.0066 263.74 43.2106C227.465 70.0132 216.218 112.352 212.737 136.545C204.689 138.878 198.769 146.22 198.769 155.018C198.769 155.393 198.858 155.742 198.878 156.112C174.686 168.265 155.638 183.698 140.844 199.428C134.496 154.166 137.88 96.6185 171.473 37.6813ZM95.7586 155.018C95.7586 141.357 86.3919 129.914 73.74 126.676C81.412 98.0184 96.3586 75.6119 118.42 59.8853C129.119 52.2613 140.88 46.6786 153.04 42.632C123.144 101.49 120.861 158.45 127.545 203.526C121.547 207.739 119.493 215.501 122.297 222.007C108.983 240.618 101.276 257.426 97.4893 267.013C85.9413 258.719 63.3414 235.754 65.364 184.252C65.7333 184.266 66.0973 184.309 66.4707 184.309C82.6466 184.309 95.7586 171.194 95.7586 155.018ZM237.345 155.608C237.352 155.408 237.405 155.222 237.405 155.018C237.405 147.44 233 140.948 226.646 137.784C229.985 116.029 240.166 78.6172 271.157 54.9999C274.425 57.4733 278.449 58.9945 282.863 58.9945C284.323 58.9945 285.731 58.8092 287.098 58.5039C295.97 71.6385 310.767 92.8584 331.606 120.624C328.635 124.664 326.858 129.637 326.858 135.036C326.858 136.25 326.975 137.433 327.146 138.6C306.185 148.932 286.359 160.692 267.853 173.666C255.036 165.153 244.926 159.424 237.345 155.608ZM371.278 148.892C374.005 144.954 375.61 140.185 375.61 135.036C375.61 134.061 375.537 133.104 375.426 132.157C420.535 113.153 456.76 100.88 489.946 97.7265C544.136 106.452 576.823 135.44 593.208 167.077C564.473 148.014 512.184 151.545 437.011 177.777C429.618 180.356 422.386 183.218 415.406 186.304C398.981 175.05 383.802 162.504 371.278 148.892ZM280.011 182.026C296.634 170.677 314.351 160.35 332.978 151.153C337.446 156.208 343.958 159.412 351.234 159.412C354.501 159.412 357.611 158.758 360.459 157.593C372.173 170.464 386.001 182.374 400.967 193.176C380.838 203.475 363.733 215.409 352.405 227.111C347.779 225.777 342.746 226.146 338.233 228.413C315.305 208.434 295.967 193.353 280.011 182.026ZM231.938 168.446C238.024 171.561 245.957 176.048 255.822 182.413C222.953 207.205 194.76 235.947 172.677 267.501C169.945 266.598 167.032 266.091 163.996 266.091C162.22 266.091 160.489 266.275 158.805 266.594C154.652 256.323 150.032 243.087 146.213 227.485C151.276 223.121 152.913 216.019 150.298 209.966C164.136 195.014 181.928 180.269 204.522 168.758C208.012 172.202 212.797 174.338 218.086 174.338C223.53 174.338 228.428 172.069 231.938 168.446ZM559.18 249.846C534.542 245.605 478.751 226.062 429.402 195.428C433.412 193.804 437.476 192.272 441.568 190.842C532.202 159.214 585.687 161.305 600.544 197.049C608.204 215.477 608.263 230.842 600.703 240.313C595.043 247.406 585.323 251.083 572.716 251.083C568.511 251.083 563.984 250.674 559.18 249.846ZM23.8668 253.147C23.0694 222.302 37.0614 196.258 49.7681 179.064C50.3801 179.489 51.016 179.88 51.6614 180.258C47.9241 244.023 78.428 271.177 92.0826 280.058C86.54 291.838 74.984 318.786 72.7973 342.781C72.62 342.854 72.464 342.959 72.2893 343.038C40.9974 315.15 24.6948 284.969 23.8668 253.147ZM184.305 275.005C206.37 243.578 234.749 215.001 267.968 190.552C284.149 201.788 304.347 217.298 328.793 238.561C327.797 241.051 327.349 243.725 327.422 246.41C302.081 256.561 250.268 275.031 189.8 283.786C188.526 280.507 186.652 277.539 184.305 275.005ZM379.87 266.506C374.869 261.722 370.039 257.195 365.291 252.787C367.385 247.241 366.901 240.861 363.55 235.501C374.957 224.203 393.161 212.193 414.074 202.19C467.034 236.942 529.027 258.698 556.832 263.485C562.38 264.441 567.667 264.911 572.655 264.911C583.885 264.911 593.555 262.467 601.267 257.809C592.373 286.463 572.732 310.642 545.255 324.287C516.748 338.443 480.124 344.268 453.256 346.65C450.358 332.293 437.676 321.481 422.466 321.481C420.873 321.481 419.323 321.638 417.794 321.866C410.717 305.683 398.835 284.639 379.87 266.506ZM93.56 367.675C95.2879 365.016 96.3146 361.858 96.3146 358.451C96.3146 351.685 92.3293 345.894 86.6053 343.163C89.3853 315.31 107.087 280.85 107.3 280.442C107.36 280.325 107.395 280.195 107.448 280.074C107.453 280.063 107.46 280.058 107.465 280.046C107.477 280.022 107.48 279.994 107.492 279.969C107.591 279.734 107.704 279.503 107.779 279.262C107.907 278.838 114.785 257.075 133.019 231.299C137.06 247.709 141.942 261.662 146.322 272.469C140.201 277.549 136.301 285.21 136.301 293.786C136.301 302.891 140.715 310.945 147.497 315.993C137 346.73 133.449 376.782 132.323 396.382C129.077 396.999 126.136 398.39 123.597 400.306C109.861 389.492 99.9346 377.12 93.56 367.675ZM188.173 307.274C189.825 304.319 190.934 301.027 191.408 297.53C253.436 288.586 306.611 269.645 332.711 259.19C338.702 265.61 348.259 267.237 356.077 263.114C360.71 267.415 365.426 271.837 370.31 276.506C387.358 292.807 398.246 312.049 404.815 326.911C396.507 332.565 391.049 342.091 391.049 352.896C391.049 353.255 391.091 353.604 391.103 353.959C373.667 356.576 357.293 357.735 341.989 357.735C263.773 357.739 213.225 327.499 188.173 307.274ZM178.274 317.483C209.838 343.816 279.956 385.403 394.645 367.466C395.559 369.206 396.633 370.843 397.843 372.374C378.363 387.794 351.259 394.7 322.973 401.86C278.705 413.068 228.533 425.772 189.5 472.215C186.512 475.766 182.55 480.119 177.728 485.157C172.276 490.848 165.194 493.981 157.788 493.981C152.54 493.981 147.273 492.392 142.564 489.38C131.041 482.017 126.656 468.515 131.64 455.774L138.546 438.15C149.181 437.015 157.498 428.116 157.498 417.179C157.498 409.044 152.864 402.063 146.14 398.508C147.165 379.999 150.422 350.779 160.35 321.214C161.546 321.371 162.757 321.481 163.996 321.481C169.226 321.481 174.101 320.005 178.274 317.483Z"
        fill="url(#paint0_linear_730_435)" />
    <defs>
        <linearGradient id="paint0_linear_730_435" x1="158.747" y1="115.498" x2="477.551"
            y2="434.302" gradientUnits="userSpaceOnUse">
            <stop stop-color="#E008F9" />
            <stop offset="0.242187" stop-color="#9500BD" />
            <stop offset="0.508368" stop-color="#58009D" />
            <stop offset="0.565809" stop-color="#2F05B4" />
            <stop offset="0.794271" stop-color="#2F05B4" />
            <stop offset="1" stop-color="#0021DE" />
        </linearGradient>
    </defs>
</svg>