<svg width="650" height="650" viewBox="0 0 650 650" fill="none" xmlns="http://www.w3.org/2000/svg">
<rect width="650" height="650" rx="189" fill="white"/>
<path d="M301.5 88.3112C298.829 86.9366 295.848 86.0886 292.638 86.0886C288.177 86.0886 284.114 87.6459 280.828 90.1686C245.727 83.8913 172.873 77.138 120.163 114.706C94.4429 133.04 77.3789 159.211 69.2149 192.704C56.4403 195.859 46.955 207.362 46.955 221.108C46.955 225.956 48.1523 230.516 50.235 234.542C35.7857 253.448 18.8724 283.429 19.8124 319.597C20.7404 355.436 38.643 388.991 72.9616 419.538C72.4683 421.129 72.1256 422.788 72.1256 424.541C72.1256 433.92 79.7296 441.522 89.1069 441.522C90.0002 441.522 90.8576 441.392 91.7149 441.258C98.8322 451.82 110.043 465.78 125.649 477.898C125.197 479.624 124.877 481.401 124.877 483.269C124.877 490.776 128.804 497.333 134.689 501.098L128.531 516.816C121.063 535.89 127.637 556.111 144.887 567.13C151.828 571.567 159.671 573.91 167.563 573.91C178.776 573.91 189.405 569.262 197.495 560.819C202.527 555.569 206.684 550.991 209.865 547.213C246.029 504.181 293.904 492.061 336.149 481.365C367.265 473.486 397.053 465.881 418.763 447.332C422.853 449.281 427.409 450.402 432.241 450.402C446.922 450.402 459.218 440.314 462.662 426.704C491.503 424.301 530.167 418.172 561.184 402.77C610.895 378.087 637.874 322.976 628.319 265.633C620.49 218.652 583.643 164.031 503.754 150.443C495.589 140.052 476.777 118.581 449.099 101.449C427.81 88.2659 398.565 76.0913 363.252 76.09C344.316 76.0887 323.64 79.5886 301.5 88.3112ZM308.416 116.963C310.732 113.757 312.137 109.846 312.137 105.587C312.137 103.443 311.706 101.419 311.068 99.4872C367.176 79.1713 412.646 95.1552 441.818 113.214C462.183 125.823 477.378 140.922 486.646 151.51C455.09 156.272 420.95 168.17 379.741 185.532C375.268 180.167 368.538 176.748 361.009 176.748C357.974 176.748 355.081 177.33 352.401 178.342C331.78 150.866 317.161 129.906 308.416 116.963ZM181.248 103.771C196.829 100.498 212.535 99.2966 227.072 99.2966C245.168 99.2966 261.421 101.122 273.4 103.005C273.286 103.858 273.14 104.703 273.14 105.587C273.14 106.859 273.281 108.097 273.514 109.301C237.24 136.103 225.993 178.442 222.512 202.635C214.464 204.968 208.544 212.31 208.544 221.108C208.544 221.483 208.633 221.832 208.653 222.202C184.461 234.355 165.413 249.788 150.619 265.518C144.271 220.256 147.655 162.708 181.248 103.771ZM105.534 221.108C105.534 207.447 96.1668 196.004 83.5149 192.766C91.1869 164.108 106.133 141.702 128.195 125.975C138.893 118.351 150.655 112.769 162.815 108.722C132.919 167.58 130.636 224.54 137.32 269.616C131.321 273.829 129.268 281.591 132.072 288.097C118.757 306.708 111.051 323.516 107.264 333.103C95.7162 324.809 73.1163 301.844 75.1389 250.342C75.5083 250.356 75.8722 250.399 76.2456 250.399C92.4215 250.399 105.534 237.284 105.534 221.108ZM247.12 221.698C247.126 221.498 247.18 221.312 247.18 221.108C247.18 213.53 242.775 207.038 236.421 203.874C239.76 182.119 249.941 144.707 280.932 121.09C284.2 123.563 288.224 125.085 292.638 125.085C294.098 125.085 295.506 124.899 296.873 124.594C305.745 137.729 320.542 158.948 341.381 186.714C338.41 190.754 336.633 195.727 336.633 201.126C336.633 202.34 336.75 203.523 336.921 204.69C315.96 215.022 296.134 226.782 277.628 239.756C264.81 231.243 254.701 225.514 247.12 221.698ZM381.053 214.982C383.779 211.044 385.385 206.275 385.385 201.126C385.385 200.151 385.311 199.194 385.201 198.247C430.31 179.243 466.535 166.97 499.721 163.816C553.911 172.542 586.598 201.53 602.983 233.167C574.248 214.104 521.959 217.635 446.786 243.867C439.393 246.445 432.161 249.308 425.181 252.394C408.755 241.14 393.577 228.594 381.053 214.982ZM289.786 248.116C306.409 236.767 324.126 226.44 342.753 217.243C347.221 222.298 353.733 225.502 361.009 225.502C364.276 225.502 367.386 224.848 370.234 223.683C381.948 236.554 395.775 248.464 410.742 259.266C390.613 269.565 373.508 281.499 362.18 293.201C357.554 291.867 352.521 292.236 348.008 294.503C325.08 274.524 305.742 259.443 289.786 248.116ZM241.713 234.536C247.798 237.651 255.732 242.138 265.597 248.503C232.728 273.295 204.535 302.037 182.452 333.591C179.72 332.688 176.807 332.181 173.771 332.181C171.995 332.181 170.264 332.365 168.58 332.684C164.427 322.413 159.807 309.177 155.988 293.575C161.051 289.211 162.688 282.109 160.073 276.056C173.911 261.104 191.703 246.359 214.297 234.848C217.787 238.292 222.572 240.428 227.861 240.428C233.305 240.428 238.203 238.159 241.713 234.536ZM568.955 315.936C544.316 311.695 488.526 292.152 439.177 261.518C443.187 259.894 447.251 258.361 451.343 256.932C541.976 225.304 595.462 227.395 610.319 263.139C617.979 281.567 618.038 296.932 610.478 306.403C604.818 313.496 595.098 317.173 582.491 317.173C578.286 317.173 573.759 316.764 568.955 315.936ZM33.6417 319.237C32.8443 288.392 46.8363 262.348 59.543 245.154C60.155 245.579 60.7909 245.97 61.4363 246.348C57.699 310.113 88.2029 337.267 101.858 346.148C96.3149 357.928 84.7589 384.876 82.5722 408.87C82.3949 408.944 82.2389 409.049 82.0642 409.128C50.7723 381.24 34.4697 351.059 33.6417 319.237ZM194.08 341.095C216.145 309.668 244.524 281.091 277.742 256.642C293.924 267.878 314.122 283.388 338.568 304.651C337.572 307.141 337.124 309.815 337.197 312.5C311.856 322.651 260.042 341.121 199.575 349.876C198.301 346.597 196.427 343.629 194.08 341.095ZM389.645 332.596C384.644 327.812 379.814 323.285 375.066 318.877C377.16 313.331 376.676 306.951 373.325 301.591C384.732 290.293 402.936 278.283 423.849 268.28C476.809 303.032 538.802 324.788 566.607 329.575C572.155 330.531 577.442 331.001 582.43 331.001C593.66 331.001 603.33 328.557 611.042 323.899C602.148 352.553 582.507 376.732 555.03 390.377C526.523 404.533 489.899 410.358 463.031 412.74C460.133 398.382 447.451 387.571 432.241 387.571C430.647 387.571 429.098 387.728 427.569 387.956C420.491 371.773 408.61 350.729 389.645 332.596ZM103.335 433.765C105.063 431.106 106.089 427.948 106.089 424.541C106.089 417.774 102.104 411.984 96.3802 409.253C99.1602 381.4 116.861 346.94 117.075 346.532C117.135 346.415 117.169 346.285 117.223 346.164C117.228 346.153 117.235 346.148 117.24 346.136C117.252 346.112 117.255 346.084 117.267 346.059C117.365 345.824 117.479 345.593 117.553 345.352C117.681 344.928 124.56 323.165 142.793 297.389C146.835 313.799 151.717 327.752 156.097 338.559C149.976 343.639 146.076 351.3 146.076 359.876C146.076 368.981 150.489 377.035 157.272 382.083C146.775 412.82 143.224 442.872 142.097 462.472C138.852 463.089 135.911 464.48 133.372 466.396C119.636 455.582 109.71 443.21 103.335 433.765ZM197.948 373.364C199.6 370.409 200.709 367.117 201.183 363.62C263.21 354.676 316.386 335.735 342.486 325.28C348.477 331.7 358.034 333.327 365.852 329.204C370.485 333.505 375.201 337.927 380.085 342.596C397.133 358.897 408.021 378.139 414.59 393.001C406.282 398.654 400.823 408.181 400.823 418.986C400.823 419.345 400.866 419.694 400.878 420.049C383.442 422.666 367.068 423.825 351.764 423.825C273.548 423.829 223 393.589 197.948 373.364ZM188.049 383.573C219.613 409.906 289.73 451.493 404.419 433.556C405.334 435.296 406.407 436.933 407.618 438.464C388.138 453.884 361.034 460.79 332.748 467.95C288.48 479.158 238.308 491.862 199.275 538.305C196.287 541.855 192.325 546.209 187.503 551.247C182.051 556.938 174.969 560.071 167.563 560.071C162.315 560.071 157.048 558.482 152.339 555.47C140.816 548.107 136.431 534.605 141.415 521.863L148.321 504.24C158.956 503.105 167.273 494.206 167.273 483.269C167.273 475.134 162.639 468.153 155.915 464.598C156.94 446.089 160.197 416.869 170.125 387.304C171.321 387.461 172.532 387.571 173.771 387.571C179.001 387.571 183.876 386.095 188.049 383.573Z" fill="url(#paint0_linear_739_437)"/>
<defs>
<linearGradient id="paint0_linear_739_437" x1="168.522" y1="181.588" x2="487.326" y2="500.392" gradientUnits="userSpaceOnUse">
<stop stop-color="#E008F9"/>
<stop offset="0.242187" stop-color="#9500BD"/>
<stop offset="0.508368" stop-color="#58009D"/>
<stop offset="0.565809" stop-color="#2F05B4"/>
<stop offset="0.794271" stop-color="#2F05B4"/>
<stop offset="1" stop-color="#0021DE"/>
</linearGradient>
</defs>
</svg>
