<svg width="480" height="480" viewBox="0 0 480 480" fill="none" xmlns="http://www.w3.org/2000/svg">
<path d="M231.482 113.171C230.52 112.676 229.447 112.371 228.292 112.371C226.687 112.371 225.224 112.931 224.041 113.839C211.408 111.58 185.188 109.149 166.217 122.67C156.96 129.269 150.818 138.688 147.88 150.743C143.282 151.878 139.868 156.018 139.868 160.966C139.868 162.71 140.299 164.352 141.049 165.8C135.848 172.605 129.761 183.396 130.099 196.413C130.433 209.311 136.877 221.388 149.228 232.383C149.051 232.955 148.927 233.552 148.927 234.183C148.927 237.559 151.664 240.295 155.039 240.295C155.361 240.295 155.669 240.248 155.978 240.2C158.539 244.001 162.574 249.025 168.191 253.387C168.029 254.008 167.913 254.647 167.913 255.32C167.913 258.022 169.327 260.382 171.445 261.737L169.228 267.394C166.54 274.259 168.907 281.537 175.115 285.502C177.613 287.099 180.436 287.942 183.276 287.942C187.312 287.942 191.138 286.27 194.049 283.231C195.86 281.341 197.356 279.694 198.501 278.334C211.517 262.846 228.748 258.484 243.952 254.635C255.151 251.799 265.872 249.062 273.686 242.386C275.158 243.087 276.797 243.491 278.537 243.491C283.82 243.491 288.246 239.86 289.485 234.961C299.866 234.097 313.781 231.891 324.945 226.348C342.836 217.464 352.546 197.629 349.107 176.991C346.289 160.082 333.028 140.423 304.275 135.532C301.336 131.793 294.565 124.065 284.604 117.899C276.942 113.154 266.416 108.772 253.707 108.772C246.891 108.772 239.45 110.031 231.482 113.171ZM233.971 123.483C234.804 122.329 235.31 120.921 235.31 119.388C235.31 118.617 235.155 117.888 234.925 117.193C255.119 109.881 271.484 115.634 281.983 122.133C289.313 126.671 294.782 132.106 298.117 135.916C286.76 137.63 274.473 141.912 259.641 148.161C258.031 146.23 255.609 145 252.899 145C251.807 145 250.766 145.209 249.801 145.573C242.38 135.685 237.118 128.141 233.971 123.483ZM188.202 118.735C193.81 117.557 199.462 117.124 204.694 117.124C211.207 117.124 217.057 117.781 221.368 118.459C221.327 118.766 221.274 119.07 221.274 119.388C221.274 119.846 221.325 120.291 221.409 120.725C208.354 130.371 204.306 145.609 203.053 154.317C200.156 155.157 198.026 157.799 198.026 160.966C198.026 161.1 198.058 161.226 198.065 161.359C189.358 165.733 182.503 171.288 177.178 176.949C174.893 160.659 176.111 139.947 188.202 118.735ZM160.951 160.966C160.951 156.049 157.58 151.93 153.027 150.765C155.788 140.451 161.167 132.386 169.107 126.726C172.958 123.982 177.191 121.973 181.567 120.517C170.808 141.7 169.986 162.201 172.392 178.424C170.233 179.94 169.494 182.734 170.503 185.076C165.711 191.774 162.937 197.823 161.574 201.273C157.418 198.289 149.284 190.023 150.012 171.487C150.145 171.492 150.276 171.508 150.41 171.508C156.232 171.508 160.951 166.787 160.951 160.966ZM211.91 161.178C211.912 161.106 211.931 161.039 211.931 160.966C211.931 158.238 210.346 155.901 208.059 154.763C209.261 146.933 212.925 133.468 224.079 124.968C225.255 125.858 226.703 126.406 228.292 126.406C228.818 126.406 229.324 126.339 229.816 126.229C233.009 130.956 238.335 138.594 245.835 148.587C244.766 150.041 244.126 151.831 244.126 153.774C244.126 154.211 244.169 154.636 244.23 155.056C236.686 158.775 229.55 163.007 222.89 167.677C218.277 164.613 214.638 162.551 211.91 161.178ZM260.113 158.76C261.095 157.343 261.673 155.627 261.673 153.774C261.673 153.423 261.646 153.078 261.606 152.738C277.842 145.898 290.879 141.481 302.823 140.346C322.327 143.486 334.091 153.919 339.988 165.306C329.646 158.445 310.827 159.715 283.772 169.157C281.111 170.085 278.508 171.115 275.996 172.225C270.084 168.175 264.621 163.66 260.113 158.76ZM227.266 170.686C233.248 166.601 239.625 162.885 246.329 159.574C247.937 161.394 250.281 162.547 252.899 162.547C254.075 162.547 255.195 162.312 256.22 161.892C260.436 166.524 265.412 170.811 270.799 174.699C263.554 178.406 257.398 182.701 253.321 186.913C251.656 186.432 249.845 186.565 248.22 187.381C239.968 180.19 233.008 174.763 227.266 170.686ZM209.964 165.798C212.154 166.919 215.009 168.534 218.56 170.825C206.73 179.748 196.583 190.093 188.635 201.449C187.652 201.124 186.603 200.942 185.511 200.942C184.871 200.942 184.248 201.008 183.642 201.123C182.148 197.426 180.485 192.662 179.11 187.047C180.933 185.476 181.522 182.92 180.581 180.742C185.561 175.36 191.964 170.053 200.096 165.911C201.352 167.15 203.075 167.919 204.978 167.919C206.938 167.919 208.7 167.102 209.964 165.798ZM327.741 195.095C318.874 193.568 298.794 186.535 281.033 175.509C282.476 174.925 283.939 174.373 285.412 173.859C318.032 162.476 337.281 163.228 342.629 176.093C345.386 182.725 345.407 188.255 342.686 191.664C340.649 194.217 337.15 195.54 332.613 195.54C331.1 195.54 329.47 195.393 327.741 195.095ZM135.077 196.283C134.79 185.182 139.826 175.808 144.399 169.62C144.619 169.773 144.848 169.913 145.08 170.05C143.735 192.999 154.714 202.772 159.628 205.969C157.633 210.208 153.474 219.907 152.687 228.543C152.623 228.569 152.567 228.607 152.504 228.636C141.242 218.599 135.375 207.736 135.077 196.283ZM192.82 204.15C200.762 192.839 210.975 182.554 222.931 173.754C228.755 177.798 236.025 183.381 244.823 191.033C244.464 191.93 244.303 192.892 244.329 193.858C235.209 197.512 216.561 204.159 194.798 207.31C194.339 206.13 193.665 205.062 192.82 204.15ZM263.206 201.091C261.406 199.369 259.668 197.74 257.959 196.154C258.712 194.157 258.538 191.861 257.332 189.932C261.437 185.866 267.989 181.543 275.516 177.943C294.577 190.451 316.889 198.281 326.896 200.004C328.893 200.348 330.796 200.517 332.591 200.517C336.633 200.517 340.113 199.638 342.889 197.961C339.688 208.274 332.619 216.976 322.73 221.887C312.47 226.982 299.288 229.079 289.618 229.936C288.575 224.768 284.011 220.877 278.537 220.877C277.963 220.877 277.405 220.934 276.855 221.016C274.308 215.191 270.032 207.617 263.206 201.091ZM160.16 237.503C160.782 236.546 161.151 235.409 161.151 234.183C161.151 231.748 159.717 229.664 157.657 228.681C158.657 218.656 165.028 206.254 165.105 206.107C165.127 206.065 165.139 206.018 165.158 205.974C165.16 205.97 165.163 205.969 165.165 205.964C165.169 205.956 165.17 205.946 165.174 205.936C165.21 205.852 165.251 205.769 165.277 205.682C165.323 205.529 167.799 197.697 174.362 188.42C175.816 194.326 177.573 199.348 179.15 203.237C176.947 205.065 175.543 207.823 175.543 210.909C175.543 214.187 177.131 217.085 179.573 218.902C175.794 229.964 174.517 240.78 174.111 247.835C172.943 248.057 171.884 248.557 170.971 249.247C166.027 245.355 162.454 240.902 160.16 237.503ZM194.212 215.764C194.807 214.7 195.206 213.516 195.376 212.257C217.701 209.038 236.839 202.221 246.233 198.458C248.389 200.769 251.829 201.354 254.642 199.87C256.31 201.418 258.007 203.01 259.765 204.69C265.901 210.557 269.82 217.482 272.184 222.832C269.194 224.866 267.229 228.295 267.229 232.184C267.229 232.313 267.244 232.439 267.249 232.566C260.973 233.508 255.08 233.925 249.572 233.925C221.421 233.927 203.229 223.043 194.212 215.764ZM190.65 219.438C202.01 228.916 227.246 243.883 268.523 237.428C268.853 238.054 269.239 238.643 269.675 239.194C262.664 244.744 252.909 247.23 242.728 249.806C226.795 253.84 208.738 258.413 194.69 275.128C193.614 276.406 192.189 277.972 190.453 279.786C188.491 281.834 185.942 282.962 183.276 282.962C181.387 282.962 179.492 282.39 177.797 281.306C173.65 278.656 172.072 273.796 173.865 269.21L176.351 262.867C180.179 262.459 183.172 259.256 183.172 255.32C183.172 252.392 181.504 249.879 179.084 248.6C179.453 241.938 180.625 231.422 184.199 220.781C184.629 220.838 185.065 220.877 185.511 220.877C187.393 220.877 189.148 220.346 190.65 219.438Z" fill="url(#paint0_linear_1096_132)"/>
<mask id="mask0_1096_132" style="mask-type:luminance" maskUnits="userSpaceOnUse" x="0" y="0" width="480" height="480">
<path d="M0 0.00119019H479.879V479.88H0V0.00119019Z" fill="white"/>
</mask>
<g mask="url(#mask0_1096_132)">
<path d="M29.4668 355.722H37.2504C37.5216 358.256 38.5778 360.218 40.4191 361.605C42.2589 362.993 44.5379 363.687 47.2525 363.687C50.6016 363.687 53.0303 362.971 54.539 361.538C56.0473 360.104 56.8026 358.498 56.8026 356.717C56.8026 355.029 56.1754 353.663 54.9244 352.622C53.6719 351.581 51.4462 350.638 48.2488 349.793L39.8303 347.44C33.2828 345.569 30.0091 341.375 30.0091 334.858C30.0091 330.604 31.5399 327.082 34.6039 324.29C37.6646 321.5 41.8817 320.104 47.2525 320.104C50.2086 320.104 52.7668 320.526 54.9244 321.371C57.0805 322.217 58.8004 323.355 60.0831 324.788C61.3653 326.221 62.3073 327.843 62.9124 329.653C63.5147 331.464 63.8175 333.32 63.8175 335.22H56.0324C55.399 329.729 52.4127 326.983 47.0716 326.983C45.4113 326.983 43.904 327.3 42.5449 327.933C41.1878 328.567 40.1465 329.412 39.4228 330.469C38.6992 331.524 38.3364 332.701 38.3364 333.998C38.3364 336.956 40.1316 338.931 43.723 339.927L55.0376 343.185C58.7173 344.242 61.3202 345.811 62.8443 347.892C64.3665 349.974 65.13 352.644 65.13 355.903C65.13 359.071 64.3146 361.809 62.6864 364.117C61.0563 366.426 58.8906 368.168 56.1903 369.345C53.491 370.521 50.6314 371.109 47.6153 371.109C42.0329 371.109 37.6497 369.715 34.4671 366.923C31.2836 364.133 29.6165 360.399 29.4668 355.722Z" fill="black"/>
</g>
<path d="M78.1182 301.639C77.002 302.786 76.4448 304.158 76.4448 305.757C76.4448 307.326 77.0101 308.706 78.1417 309.899C79.2727 311.091 80.6534 311.686 82.2821 311.686C83.9122 311.686 85.2914 311.106 86.4239 309.944C87.555 308.783 88.1208 307.387 88.1208 305.757C88.1208 304.671 87.8645 303.684 87.351 302.794C86.838 301.903 86.1365 301.202 85.2463 300.688C84.3561 300.176 83.3685 299.919 82.2821 299.919C80.6222 299.919 79.2348 300.492 78.1182 301.639Z" fill="url(#paint1_linear_1096_132)"/>
<mask id="mask1_1096_132" style="mask-type:luminance" maskUnits="userSpaceOnUse" x="0" y="0" width="480" height="480">
<path d="M0 0.00119019H479.879V479.88H0V0.00119019Z" fill="white"/>
</mask>
<g mask="url(#mask1_1096_132)">
<path d="M78.1184 321.235H86.4458V369.978H78.1184V321.235ZM144.512 345.607C144.512 342.375 143.727 339.414 142.158 336.725C140.589 334.036 138.492 331.907 135.867 330.336C133.242 328.764 130.436 327.979 127.45 327.979C124.703 327.979 122.237 328.463 120.049 329.429C117.862 330.396 115.992 331.725 114.438 333.417C112.883 335.108 111.714 336.974 110.93 339.013C110.145 341.053 109.754 343.099 109.754 345.154C109.754 348.779 110.568 351.966 112.198 354.715C113.826 357.466 115.969 359.572 118.623 361.037C121.279 362.502 124.129 363.234 127.177 363.234C130.346 363.234 133.242 362.45 135.867 360.878C138.492 359.307 140.589 357.162 142.158 354.443C143.727 351.725 144.512 348.779 144.512 345.607ZM144.512 328.93V298.788H152.839V369.978H144.512V362.511H144.33C142.459 365.182 139.992 367.283 136.93 368.813C133.868 370.344 130.346 371.109 126.363 371.109C121.898 371.109 117.703 370 113.781 367.783C109.859 365.566 106.721 362.473 104.368 358.505C102.014 354.538 100.838 350.05 100.838 345.041C100.838 341.572 101.486 338.336 102.784 335.334C104.08 332.331 105.907 329.676 108.26 327.368C110.614 325.06 113.32 323.272 116.384 322.004C119.445 320.738 122.636 320.104 125.956 320.104C129.727 320.104 133.257 320.873 136.545 322.412C139.834 323.951 142.429 326.123 144.33 328.93H144.512ZM176.599 341.873H208.461C208.189 339.218 207.329 336.827 205.88 334.699C204.432 332.573 202.553 330.921 200.246 329.744C197.937 328.567 195.366 327.979 192.53 327.979C189.331 327.979 186.571 328.651 184.247 329.993C181.923 331.336 180.143 333.064 178.907 335.175C177.67 337.287 176.899 339.519 176.599 341.873ZM209.41 355.335L215.791 360.556C213.68 362.962 211.477 364.946 209.184 366.51C206.891 368.073 204.493 369.231 201.988 369.982C199.484 370.733 196.829 371.109 194.023 371.109C188.592 371.109 183.87 369.918 179.857 367.535C175.845 365.152 172.812 362.013 170.761 358.121C168.709 354.229 167.682 350.019 167.682 345.494C167.682 342.115 168.278 338.863 169.47 335.741C170.662 332.618 172.36 329.88 174.562 327.527C176.765 325.173 179.397 323.348 182.46 322.05C185.521 320.753 188.909 320.104 192.619 320.104C196.331 320.104 199.733 320.776 202.826 322.118C205.919 323.461 208.604 325.407 210.881 327.957C213.16 330.506 214.902 333.545 216.109 337.076C217.315 340.605 217.919 344.529 217.919 348.843H176.599C176.991 351.597 177.971 354.072 179.541 356.266C181.109 358.461 183.146 360.171 185.651 361.396C188.155 362.622 190.916 363.235 193.932 363.235C196.889 363.235 199.664 362.569 202.261 361.237C204.854 359.906 207.238 357.939 209.41 355.335ZM294.002 369.972V321.115H302.349V328.013H302.53C303.86 325.607 305.229 323.825 306.635 322.667C308.041 321.508 309.561 320.772 311.193 320.456C312.827 320.139 315.019 319.982 317.771 319.982V328.873C316.41 328.571 315.14 328.419 313.961 328.419C310.392 328.419 307.564 329.623 305.478 332.03C303.391 334.437 302.349 337.82 302.349 342.179V369.972H294.002ZM442.065 369.972V341.529C442.065 337.477 441.158 334.188 439.344 331.663C437.53 329.138 434.686 327.875 430.815 327.875C426.883 327.875 423.807 329.153 421.584 331.708C419.361 334.264 418.25 337.855 418.25 342.482V369.972H409.903V321.115H418.25V326.786H418.477C419.716 324.64 421.539 322.969 423.943 321.774C426.347 320.579 428.94 319.982 431.721 319.982C435.079 319.982 438.172 320.624 440.999 321.91C443.827 323.195 446.103 325.221 447.827 327.989C449.551 330.755 450.412 334.226 450.412 338.399V369.972H442.065ZM385.453 359.332C380.017 353.18 374.749 348.655 369.933 345.357V336.548C369.933 332.846 368.93 329.77 366.89 327.286C364.866 324.802 362.152 322.976 358.73 321.775C355.309 320.574 351.591 319.982 347.561 319.982C341.902 319.982 336.078 321.216 330.091 323.7L333.742 330.773C336.062 329.605 338.332 328.734 340.52 328.174C342.708 327.615 344.913 327.335 347.116 327.335C351.114 327.335 354.519 328.076 357.349 329.556C360.178 331.036 361.593 333.603 361.593 337.271V340.543C355.107 337.487 350.139 336.753 347.778 336.753C347.662 336.753 347.574 336.761 347.466 336.763C347.178 336.754 346.898 336.728 346.607 336.728C342.247 336.728 338.48 337.485 335.322 339.015C332.147 340.545 329.745 342.585 328.1 345.151C326.438 347.733 325.616 350.53 325.616 353.557C325.616 357.127 326.538 360.219 328.397 362.868C330.238 365.516 332.772 367.556 335.98 368.971C339.188 370.402 342.757 371.109 346.689 371.109C349.995 371.109 352.857 370.599 355.276 369.612C357.694 368.609 359.981 366.964 362.135 364.661V369.974H369.933V355.728C367.169 353.656 364.389 351.928 361.725 350.58C361.823 351.994 361.856 353.376 361.856 353.919C361.856 356.666 360.77 358.986 358.599 360.861C356.428 362.736 352.956 363.674 348.202 363.674C343.465 363.674 339.994 362.736 337.822 360.861C335.651 358.986 334.549 356.666 334.549 353.919C334.549 352.191 335.009 350.58 335.914 349.099C336.818 347.619 338.299 346.434 340.339 345.529C342.379 344.608 345.011 344.164 348.202 344.164C348.225 344.164 348.246 344.164 348.269 344.164C356.845 344.199 374.086 352.482 385.453 369.972H393.8V321.115H385.453V359.332Z" fill="black"/>
</g>
<path d="M385.453 301.474C384.333 302.623 383.775 303.999 383.775 305.602C383.775 307.174 384.342 308.558 385.475 309.752C386.609 310.947 387.993 311.544 389.626 311.544C391.259 311.544 392.643 310.962 393.777 309.798C394.911 308.634 395.478 307.235 395.478 305.602C395.478 304.513 395.221 303.523 394.707 302.631C394.193 301.738 393.489 301.036 392.597 300.521C391.705 300.007 390.715 299.749 389.626 299.749C387.962 299.749 386.571 300.325 385.453 301.474Z" fill="url(#paint2_linear_1096_132)"/>
<mask id="mask2_1096_132" style="mask-type:luminance" maskUnits="userSpaceOnUse" x="0" y="0" width="480" height="480">
<path d="M0 0.00119019H479.879V479.88H0V0.00119019Z" fill="white"/>
</mask>
<g mask="url(#mask2_1096_132)">
<path d="M274.596 345.5C274.596 343.474 274.2 341.44 273.412 339.397C272.623 337.355 271.469 335.516 269.951 333.876C268.432 332.236 266.594 330.939 264.436 329.986C262.278 329.033 259.845 328.554 257.136 328.554C254.189 328.554 251.42 329.33 248.83 330.881C246.241 332.431 244.171 334.532 242.624 337.185C241.075 339.837 240.301 342.758 240.301 345.948C240.301 349.077 241.075 351.985 242.624 354.667C244.171 357.349 246.241 359.465 248.83 361.015C251.42 362.566 254.277 363.34 257.404 363.34C260.38 363.34 263.187 362.617 265.821 361.172C268.455 359.727 270.577 357.648 272.184 354.935C273.791 352.223 274.596 349.077 274.596 345.5ZM232.086 369.993V298.788H240.301V329.493H240.479C242.355 326.725 244.924 324.58 248.182 323.063C251.442 321.544 254.918 320.785 258.609 320.785C261.914 320.785 265.084 321.419 268.12 322.683C271.156 323.95 273.806 325.691 276.069 327.907C278.331 330.125 280.117 332.753 281.428 335.79C282.737 338.826 283.393 342.027 283.393 345.39C283.393 350.331 282.231 354.76 279.908 358.673C277.586 362.589 274.49 365.639 270.622 367.828C266.751 370.015 262.612 371.109 258.208 371.109C254.277 371.109 250.802 370.355 247.781 368.845C244.76 367.335 242.325 365.262 240.479 362.626H240.301V369.993H232.086Z" fill="black"/>
</g>
<defs>
<linearGradient id="paint0_linear_1096_132" x1="183.621" y1="146.742" x2="298.362" y2="261.482" gradientUnits="userSpaceOnUse">
<stop stop-color="#E008F9"/>
<stop offset="0.189" stop-color="#9500BD"/>
<stop offset="0.508368" stop-color="#58009D"/>
<stop offset="0.565809" stop-color="#2F05B4"/>
<stop offset="0.794271" stop-color="#2F05B4"/>
<stop offset="1" stop-color="#0021DE"/>
</linearGradient>
<linearGradient id="paint1_linear_1096_132" x1="79.2899" y1="302.413" x2="86.6599" y2="308.376" gradientUnits="userSpaceOnUse">
<stop stop-color="#E008F9"/>
<stop offset="0.189" stop-color="#9500BD"/>
<stop offset="0.508368" stop-color="#58009D"/>
<stop offset="0.565809" stop-color="#2F05B4"/>
<stop offset="0.794271" stop-color="#2F05B4"/>
<stop offset="1" stop-color="#0021DE"/>
</linearGradient>
<linearGradient id="paint2_linear_1096_132" x1="386.627" y1="302.249" x2="394.014" y2="308.226" gradientUnits="userSpaceOnUse">
<stop stop-color="#E008F9"/>
<stop offset="0.189" stop-color="#9500BD"/>
<stop offset="0.508368" stop-color="#58009D"/>
<stop offset="0.565809" stop-color="#2F05B4"/>
<stop offset="0.794271" stop-color="#2F05B4"/>
<stop offset="1" stop-color="#0021DE"/>
</linearGradient>
</defs>
</svg>
